ffmpeg started on 2025-06-21 at 12:34:07
Report written to "D:\Convert\FFMetrics\reports\ssim_report-6.txt"
Log level: 32
Command line:
ffmpeg -hide_banner -nostdin -i "G:\\\xc0\xed\xe8\xec\xe5\\[\xd2\xee\xef-4]\\\xc4\xe5\xf0\xe6\xe0\xf1\xfc \xc7\xe0 \xd0\xf3\xea\xe8\\Hand_Shakers_[05]_[AniLibria.TV]_[HDTV-Rip_720p]_HEVC.mkv" -i "G:\\\xc0\xed\xe8\xec\xe5\\[\xd2\xee\xef-4]\\\xc4\xe5\xf0\xe6\xe0\xf1\xfc \xc7\xe0 \xd0\xf3\xea\xe8\\Hand_Shakers_[05]_[AniLibria.TV]_[HDTV-Rip_720p].mkv" -lavfi "[0:v]settb=AVTB,setpts=PTS-STARTPTS,format=pix_fmts=yuv420p10,fps=30000/1001,scale=1280:720:flags=bicubic[main];[1:v]settb=AVTB,setpts=PTS-STARTPTS,format=pix_fmts=yuv420p,fps=30000/1001,scale=1280:720:flags=bicubic[ref];[main][ref]ssim=eof_action=endall:stats_file='D\\:/Convert/FFMetrics/logs/ssim_logfile-6.txt'" -f null -
Input #0, matroska,webm, from 'G:\Аниме\[Топ-4]\Держась За Руки\Hand_Shakers_[05]_[AniLibria.TV]_[HDTV-Rip_720p]_HEVC.mkv':
  Metadata:
    ENCODER         : Lavf61.7.100
  Duration: 00:23:59.91, start: -0.021000, bitrate: 1712 kb/s
  Stream #0:0(jpn): Video: hevc (Main 10), yuv420p10le(tv, bt709, progressive), 1280x720 [SAR 1:1 DAR 16:9], 29.97 fps, 29.97 tbr, 1k tbn (default)
      Metadata:
        ENCODER         : Lavc61.19.100 libx265
        BPS             : 1513827
        DURATION        : 00:23:59.771366664
        NUMBER_OF_FRAMES: 43150
        NUMBER_OF_BYTES : 272445612
        _STATISTICS_WRITING_APP: mkvpropedit v66.0.0 ('Josie') 64-bit
        _STATISTICS_WRITING_DATE_UTC: 2025-06-20 16:10:33
        _STATISTICS_TAGS: BPS DURATION NUMBER_OF_FRAMES NUMBER_OF_BYTES
  Stream #0:1(rus): Audio: aac (LC), 48000 Hz, stereo, fltp (default) (forced)
      Metadata:
        title           : Амикири и Анзен
        ENCODER         : Lavc61.19.100 aac
        BPS             : 194236
        DURATION        : 00:23:59.893000000
        NUMBER_OF_FRAMES: 67496
        NUMBER_OF_BYTES : 34960002
        _STATISTICS_WRITING_APP: mkvpropedit v66.0.0 ('Josie') 64-bit
        _STATISTICS_WRITING_DATE_UTC: 2025-06-20 16:10:33
        _STATISTICS_TAGS: BPS DURATION NUMBER_OF_FRAMES NUMBER_OF_BYTES
  Stream #0:2(rus): Subtitle: ass (ssa) (default) (forced)
      Metadata:
        title           : Надписи
        BPS             : 10
        DURATION        : 00:21:46.190000000
        NUMBER_OF_FRAMES: 14
        NUMBER_OF_BYTES : 1765
        _STATISTICS_WRITING_APP: mkvpropedit v66.0.0 ('Josie') 64-bit
        _STATISTICS_WRITING_DATE_UTC: 2025-06-20 16:10:33
        _STATISTICS_TAGS: BPS DURATION NUMBER_OF_FRAMES NUMBER_OF_BYTES
  Stream #0:3(rus): Subtitle: ass (ssa)
      Metadata:
        title           : Субтитры
        BPS             : 137
        DURATION        : 00:23:18.320000000
        NUMBER_OF_FRAMES: 355
        NUMBER_OF_BYTES : 23977
        _STATISTICS_WRITING_APP: mkvpropedit v66.0.0 ('Josie') 64-bit
        _STATISTICS_WRITING_DATE_UTC: 2025-06-20 16:10:33
        _STATISTICS_TAGS: BPS DURATION NUMBER_OF_FRAMES NUMBER_OF_BYTES
Input #1, matroska,webm, from 'G:\Аниме\[Топ-4]\Держась За Руки\Hand_Shakers_[05]_[AniLibria.TV]_[HDTV-Rip_720p].mkv':
  Metadata:
    encoder         : libebml v1.4.2 + libmatroska v1.6.4
    creation_time   : 2024-12-27T17:05:57.000000Z
  Duration: 00:23:59.89, start: 0.000000, bitrate: 3742 kb/s
  Stream #1:0(jpn): Video: h264 (High), yuv420p(tv, bt709, progressive), 1280x720 [SAR 1:1 DAR 16:9], 29.97 fps, 29.97 tbr, 1k tbn (default)
      Metadata:
        BPS             : 3547299
        DURATION        : 00:23:59.771000000
        NUMBER_OF_FRAMES: 43150
        NUMBER_OF_BYTES : 638412436
        _STATISTICS_WRITING_APP: mkvmerge v66.0.0 ('Josie') 64-bit
        _STATISTICS_WRITING_DATE_UTC: 2024-12-27 17:05:57
        _STATISTICS_TAGS: BPS DURATION NUMBER_OF_FRAMES NUMBER_OF_BYTES
  Stream #1:1(rus): Audio: aac (LC), 48000 Hz, stereo, fltp (default) (forced)
      Metadata:
        title           : Амикири и Анзен
        BPS             : 189375
        DURATION        : 00:23:59.893000000
        NUMBER_OF_FRAMES: 67495
        NUMBER_OF_BYTES : 34084975
        _STATISTICS_WRITING_APP: mkvmerge v66.0.0 ('Josie') 64-bit
        _STATISTICS_WRITING_DATE_UTC: 2024-12-27 17:05:57
        _STATISTICS_TAGS: BPS DURATION NUMBER_OF_FRAMES NUMBER_OF_BYTES
  Stream #1:2(rus): Subtitle: ass (ssa) (default) (forced)
      Metadata:
        title           : Надписи
        BPS             : 10
        DURATION        : 00:21:46.190000000
        NUMBER_OF_FRAMES: 14
        NUMBER_OF_BYTES : 1765
        _STATISTICS_WRITING_APP: mkvmerge v66.0.0 ('Josie') 64-bit
        _STATISTICS_WRITING_DATE_UTC: 2024-12-27 17:05:57
        _STATISTICS_TAGS: BPS DURATION NUMBER_OF_FRAMES NUMBER_OF_BYTES
  Stream #1:3(rus): Subtitle: ass (ssa)
      Metadata:
        title           : Субтитры
        BPS             : 137
        DURATION        : 00:23:18.320000000
        NUMBER_OF_FRAMES: 355
        NUMBER_OF_BYTES : 23977
        _STATISTICS_WRITING_APP: mkvmerge v66.0.0 ('Josie') 64-bit
        _STATISTICS_WRITING_DATE_UTC: 2024-12-27 17:05:57
        _STATISTICS_TAGS: BPS DURATION NUMBER_OF_FRAMES NUMBER_OF_BYTES
  Stream #1:4: Attachment: ttf
      Metadata:
        filename        : 8289.otf
        mimetype        : application/x-truetype-font
  Stream #1:5: Attachment: ttf
      Metadata:
        filename        : 8651.ttf
        mimetype        : application/x-truetype-font
  Stream #1:6: Attachment: ttf
      Metadata:
        filename        : 10200.ttf
        mimetype        : application/x-truetype-font
  Stream #1:7: Attachment: ttf
      Metadata:
        filename        : 10322.ttf
        mimetype        : application/x-truetype-font
  Stream #1:8: Attachment: ttf
      Metadata:
        filename        : 10200.ttf
        mimetype        : application/x-truetype-font
Stream mapping:
  Stream #0:0 (hevc) -> settb:default
  Stream #1:0 (h264) -> settb:default
  ssim:default -> Stream #0:0 (wrapped_avframe)
  Stream #0:1 -> #0:1 (aac (native) -> pcm_s16le (native))
Output #0, null, to 'pipe:':
  Metadata:
    encoder         : Lavf61.7.100
  Stream #0:0: Video: wrapped_avframe, yuv420p10le(tv, bt709, progressive), 1280x720 [SAR 1:1 DAR 16:9], q=2-31, 200 kb/s, 29.97 fps, 29.97 tbn
      Metadata:
        encoder         : Lavc61.19.100 wrapped_avframe
  Stream #0:1(rus): Audio: pcm_s16le, 48000 Hz, stereo, s16, 1536 kb/s (default) (forced)
      Metadata:
        title           : Амикири и Анзен
        _STATISTICS_TAGS: BPS DURATION NUMBER_OF_FRAMES NUMBER_OF_BYTES
        BPS             : 194236
        DURATION        : 00:23:59.893000000
        NUMBER_OF_FRAMES: 67496
        NUMBER_OF_BYTES : 34960002
        _STATISTICS_WRITING_APP: mkvpropedit v66.0.0 ('Josie') 64-bit
        _STATISTICS_WRITING_DATE_UTC: 2025-06-20 16:10:33
        encoder         : Lavc61.19.100 pcm_s16le
frame=  234 fps=0.0 q=-0.0 size=N/A time=00:00:07.80 bitrate=N/A speed=15.1x    frame=  560 fps=545 q=-0.0 size=N/A time=00:00:18.68 bitrate=N/A speed=18.2x    frame=  970 fps=624 q=-0.0 size=N/A time=00:00:32.36 bitrate=N/A speed=20.8x    frame= 1392 fps=674 q=-0.0 size=N/A time=00:00:46.44 bitrate=N/A speed=22.5x    frame= 1802 fps=699 q=-0.0 size=N/A time=00:01:00.12 bitrate=N/A speed=23.3x    frame= 2198 fps=708 q=-0.0 size=N/A time=00:01:13.33 bitrate=N/A speed=23.6x    frame= 2711 fps=751 q=-0.0 size=N/A time=00:01:30.45 bitrate=N/A speed=25.1x    frame= 3201 fps=774 q=-0.0 size=N/A time=00:01:46.80 bitrate=N/A speed=25.8x    frame= 3679 fps=792 q=-0.0 size=N/A time=00:02:02.75 bitrate=N/A speed=26.4x    frame= 3933 fps=763 q=-0.0 size=N/A time=00:02:11.23 bitrate=N/A speed=25.5x    frame= 4179 fps=735 q=-0.0 size=N/A time=00:02:19.43 bitrate=N/A speed=24.5x    frame= 4440 fps=717 q=-0.0 size=N/A time=00:02:28.14 bitrate=N/A speed=23.9x    frame= 4690 fps=699 q=-0.0 size=N/A time=00:02:36.48 bitrate=N/A speed=23.3x    frame= 4932 fps=683 q=-0.0 size=N/A time=00:02:44.56 bitrate=N/A speed=22.8x    frame= 5176 fps=668 q=-0.0 size=N/A time=00:02:52.70 bitrate=N/A speed=22.3x    frame= 5389 fps=653 q=-0.0 size=N/A time=00:02:59.81 bitrate=N/A speed=21.8x    frame= 5600 fps=639 q=-0.0 size=N/A time=00:03:06.85 bitrate=N/A speed=21.3x    frame= 5838 fps=628 q=-0.0 size=N/A time=00:03:14.79 bitrate=N/A speed=  21x    frame= 6080 fps=620 q=-0.0 size=N/A time=00:03:22.86 bitrate=N/A speed=20.7x    frame= 6338 fps=615 q=-0.0 size=N/A time=00:03:31.47 bitrate=N/A speed=20.5x    frame= 6784 fps=626 q=-0.0 size=N/A time=00:03:46.35 bitrate=N/A speed=20.9x    frame= 7217 fps=636 q=-0.0 size=N/A time=00:04:00.80 bitrate=N/A speed=21.2x    frame= 7590 fps=640 q=-0.0 size=N/A time=00:04:13.25 bitrate=N/A speed=21.4x    frame= 7985 fps=645 q=-0.0 size=N/A time=00:04:26.43 bitrate=N/A speed=21.5x    frame= 8482 fps=658 q=-0.0 size=N/A time=00:04:43.01 bitrate=N/A speed=21.9x    frame= 9043 fps=675 q=-0.0 size=N/A time=00:05:01.73 bitrate=N/A speed=22.5x    frame= 9597 fps=689 q=-0.0 size=N/A time=00:05:20.21 bitrate=N/A speed=  23x    frame=10154 fps=703 q=-0.0 size=N/A time=00:05:38.80 bitrate=N/A speed=23.5x    frame=10689 fps=715 q=-0.0 size=N/A time=00:05:56.65 bitrate=N/A speed=23.9x    frame=11197 fps=723 q=-0.0 size=N/A time=00:06:13.60 bitrate=N/A speed=24.1x    frame=11780 fps=737 q=-0.0 size=N/A time=00:06:33.05 bitrate=N/A speed=24.6x    frame=12315 fps=746 q=-0.0 size=N/A time=00:06:50.91 bitrate=N/A speed=24.9x    frame=12933 fps=760 q=-0.0 size=N/A time=00:07:11.53 bitrate=N/A speed=25.3x    frame=13264 fps=756 q=-0.0 size=N/A time=00:07:22.57 bitrate=N/A speed=25.2x    frame=13667 fps=757 q=-0.0 size=N/A time=00:07:36.02 bitrate=N/A speed=25.3x    frame=14175 fps=763 q=-0.0 size=N/A time=00:07:52.97 bitrate=N/A speed=25.5x    frame=14576 fps=764 q=-0.0 size=N/A time=00:08:06.35 bitrate=N/A speed=25.5x    frame=15044 fps=767 q=-0.0 size=N/A time=00:08:21.96 bitrate=N/A speed=25.6x    frame=15438 fps=768 q=-0.0 size=N/A time=00:08:35.11 bitrate=N/A speed=25.6x    frame=15890 fps=770 q=-0.0 size=N/A time=00:08:50.19 bitrate=N/A speed=25.7x    frame=16301 fps=771 q=-0.0 size=N/A time=00:09:03.91 bitrate=N/A speed=25.7x    frame=16677 fps=770 q=-0.0 size=N/A time=00:09:16.45 bitrate=N/A speed=25.7x    frame=17065 fps=769 q=-0.0 size=N/A time=00:09:29.40 bitrate=N/A speed=25.7x    frame=17502 fps=771 q=-0.0 size=N/A time=00:09:43.98 bitrate=N/A speed=25.7x    frame=17929 fps=773 q=-0.0 size=N/A time=00:09:58.23 bitrate=N/A speed=25.8x    frame=18457 fps=778 q=-0.0 size=N/A time=00:10:15.84 bitrate=N/A speed=  26x    frame=19002 fps=784 q=-0.0 size=N/A time=00:10:34.03 bitrate=N/A speed=26.2x    frame=19540 fps=789 q=-0.0 size=N/A time=00:10:51.98 bitrate=N/A speed=26.3x    frame=19865 fps=786 q=-0.0 size=N/A time=00:11:02.82 bitrate=N/A speed=26.2x    frame=20276 fps=786 q=-0.0 size=N/A time=00:11:16.54 bitrate=N/A speed=26.2x    frame=20653 fps=785 q=-0.0 size=N/A time=00:11:29.12 bitrate=N/A speed=26.2x    frame=21185 fps=790 q=-0.0 size=N/A time=00:11:46.87 bitrate=N/A speed=26.4x    frame=21640 fps=791 q=-0.0 size=N/A time=00:12:02.05 bitrate=N/A speed=26.4x    frame=22072 fps=792 q=-0.0 size=N/A time=00:12:16.46 bitrate=N/A speed=26.4x    frame=22499 fps=793 q=-0.0 size=N/A time=00:12:30.71 bitrate=N/A speed=26.5x    frame=22873 fps=791 q=-0.0 size=N/A time=00:12:43.19 bitrate=N/A speed=26.4x    frame=23414 fps=796 q=-0.0 size=N/A time=00:13:01.24 bitrate=N/A speed=26.6x    frame=23870 fps=798 q=-0.0 size=N/A time=00:13:16.46 bitrate=N/A speed=26.6x    frame=24304 fps=799 q=-0.0 size=N/A time=00:13:30.94 bitrate=N/A speed=26.6x    frame=24802 fps=801 q=-0.0 size=N/A time=00:13:47.56 bitrate=N/A speed=26.7x    frame=25262 fps=803 q=-0.0 size=N/A time=00:14:02.90 bitrate=N/A speed=26.8x    frame=25698 fps=804 q=-0.0 size=N/A time=00:14:17.45 bitrate=N/A speed=26.8x    frame=26236 fps=807 q=-0.0 size=N/A time=00:14:35.40 bitrate=N/A speed=26.9x    frame=26783 fps=811 q=-0.0 size=N/A time=00:14:53.65 bitrate=N/A speed=27.1x    frame=27357 fps=816 q=-0.0 size=N/A time=00:15:12.81 bitrate=N/A speed=27.2x    frame=27783 fps=816 q=-0.0 size=N/A time=00:15:27.02 bitrate=N/A speed=27.2x    frame=28192 fps=816 q=-0.0 size=N/A time=00:15:40.67 bitrate=N/A speed=27.2x    frame=28736 fps=819 q=-0.0 size=N/A time=00:15:58.82 bitrate=N/A speed=27.3x    frame=29241 fps=821 q=-0.0 size=N/A time=00:16:15.67 bitrate=N/A speed=27.4x    frame=29806 fps=825 q=-0.0 size=N/A time=00:16:34.52 bitrate=N/A speed=27.5x    frame=30379 fps=829 q=-0.0 size=N/A time=00:16:53.64 bitrate=N/A speed=27.7x    frame=30946 fps=833 q=-0.0 size=N/A time=00:17:12.56 bitrate=N/A speed=27.8x    frame=31454 fps=835 q=-0.0 size=N/A time=00:17:29.51 bitrate=N/A speed=27.9x    frame=31959 fps=837 q=-0.0 size=N/A time=00:17:46.36 bitrate=N/A speed=27.9x    frame=32510 fps=840 q=-0.0 size=N/A time=00:18:04.75 bitrate=N/A speed=  28x    frame=32998 fps=842 q=-0.0 size=N/A time=00:18:21.03 bitrate=N/A speed=28.1x    frame=33544 fps=845 q=-0.0 size=N/A time=00:18:39.25 bitrate=N/A speed=28.2x    frame=34191 fps=850 q=-0.0 size=N/A time=00:19:00.83 bitrate=N/A speed=28.3x    frame=34725 fps=852 q=-0.0 size=N/A time=00:19:18.65 bitrate=N/A speed=28.4x    frame=35127 fps=851 q=-0.0 size=N/A time=00:19:32.07 bitrate=N/A speed=28.4x    frame=35586 fps=852 q=-0.0 size=N/A time=00:19:47.38 bitrate=N/A speed=28.4x    frame=36065 fps=853 q=-0.0 size=N/A time=00:20:03.36 bitrate=N/A speed=28.4x    frame=36568 fps=854 q=-0.0 size=N/A time=00:20:20.15 bitrate=N/A speed=28.5x    frame=36907 fps=852 q=-0.0 size=N/A time=00:20:31.46 bitrate=N/A speed=28.4x    frame=37289 fps=850 q=-0.0 size=N/A time=00:20:44.20 bitrate=N/A speed=28.4x    frame=37798 fps=852 q=-0.0 size=N/A time=00:21:01.19 bitrate=N/A speed=28.4x    frame=38346 fps=854 q=-0.0 size=N/A time=00:21:19.47 bitrate=N/A speed=28.5x    frame=38871 fps=856 q=-0.0 size=N/A time=00:21:36.99 bitrate=N/A speed=28.6x    frame=39212 fps=854 q=-0.0 size=N/A time=00:21:48.37 bitrate=N/A speed=28.5x    frame=39605 fps=853 q=-0.0 size=N/A time=00:22:01.48 bitrate=N/A speed=28.5x    frame=40001 fps=852 q=-0.0 size=N/A time=00:22:14.70 bitrate=N/A speed=28.4x    frame=40255 fps=848 q=-0.0 size=N/A time=00:22:23.17 bitrate=N/A speed=28.3x    frame=40507 fps=844 q=-0.0 size=N/A time=00:22:31.58 bitrate=N/A speed=28.2x    frame=40837 fps=842 q=-0.0 size=N/A time=00:22:42.59 bitrate=N/A speed=28.1x    frame=41228 fps=841 q=-0.0 size=N/A time=00:22:55.64 bitrate=N/A speed=28.1x    frame=41598 fps=840 q=-0.0 size=N/A time=00:23:07.98 bitrate=N/A speed=  28x    frame=42022 fps=840 q=-0.0 size=N/A time=00:23:22.13 bitrate=N/A speed=  28x    frame=42319 fps=837 q=-0.0 size=N/A time=00:23:32.04 bitrate=N/A speed=27.9x    frame=42611 fps=834 q=-0.0 size=N/A time=00:23:41.78 bitrate=N/A speed=27.8x    frame=42954 fps=833 q=-0.0 size=N/A time=00:23:53.23 bitrate=N/A speed=27.8x    [Parsed_ssim_10 @ 000001b0f0cdcec0] SSIM Y:0.987719 (19.107774) U:0.985218 (18.302674) V:0.986878 (18.819953) All:0.987162 (18.915091)
[out#0/null @ 000001b0f0512880] video:18541KiB audio:269984KiB subtitle:0KiB other streams:0KiB global headers:0KiB muxing overhead: unknown
frame=43150 fps=834 q=-0.0 Lsize=N/A time=00:23:59.77 bitrate=N/A speed=27.8x    
